<?xml version="1.0" encoding="UTF-8"?>
<svg width="64" height="64" viewBox="0 0 64 64" fill="none" xmlns="http://www.w3.org/2000/svg">
  <rect width="64" height="64" rx="12" fill="#4F46E5"/>
  <path d="M32 16C23.1634 16 16 23.1634 16 32C16 40.8366 23.1634 48 32 48C40.8366 48 48 40.8366 48 32C48 23.1634 40.8366 16 32 16ZM32 44.8C24.9258 44.8 19.2 39.0742 19.2 32C19.2 24.9258 24.9258 19.2 32 19.2C39.0742 19.2 44.8 24.9258 44.8 32C44.8 39.0742 39.0742 44.8 32 44.8Z" fill="white"/>
  <path d="M35.2 24H28.8V36H35.2V33.6H32V28.8H35.2V26.4H32V24H35.2Z" fill="white"/>
  <path d="M35.2 28.8H40V31.2H35.2V28.8Z" fill="white"/>
  <path d="M24 28.8H28.8V31.2H24V28.8Z" fill="white"/>
</svg>
